<?xml version="1.0" standalone="no"?>
<!DOCTYPE svg PUBLIC "-//W3C//DTD SVG 20010904//EN"
 "http://www.w3.org/TR/2001/REC-SVG-20010904/DTD/svg10.dtd">
<svg version="1.0" xmlns="http://www.w3.org/2000/svg"
 width="146.000000pt" height="146.000000pt" viewBox="0 0 146.000000 146.000000"
 preserveAspectRatio="xMidYMid meet">
<metadata>
Created by potrace 1.11, written by Peter Selinger 2001-2013
</metadata>
<g transform="translate(0.000000,146.000000) scale(0.100000,-0.100000)"
fill="#000000" stroke="none">
<path d="M630 1450 c0 -5 -13 -10 -30 -10 -16 0 -30 -4 -30 -10 0 -5 -7 -10
-15 -10 -20 0 -105 -85 -105 -105 0 -8 -4 -15 -10 -15 -5 0 -10 -9 -10 -20 0
-11 -4 -20 -10 -20 -5 0 -10 -13 -10 -30 0 -23 4 -30 20 -30 18 0 20 -7 20
-60 0 -48 -3 -60 -16 -60 -43 0 -44 -7 -44 -434 0 -264 3 -406 10 -406 6 0 10
-13 10 -30 0 -23 4 -30 20 -30 11 0 20 -4 20 -10 0 -5 9 -10 20 -10 11 0 20
-4 20 -10 0 -5 9 -10 20 -10 11 0 20 -4 20 -10 0 -5 9 -10 20 -10 11 0 20 -4
20 -10 0 -5 9 -10 20 -10 11 0 20 -4 20 -10 0 -5 9 -10 20 -10 11 0 20 -4 20
-10 0 -5 9 -10 20 -10 11 0 20 -4 20 -10 0 -6 27 -10 60 -10 33 0 60 4 60 10
0 6 9 10 20 10 11 0 20 5 20 10 0 6 9 10 20 10 11 0 20 5 20 10 0 6 9 10 20
10 11 0 20 5 20 10 0 6 9 10 20 10 11 0 20 5 20 10 0 6 9 10 20 10 11 0 20 5
20 10 0 6 7 10 16 10 23 0 44 25 44 54 0 14 5 26 10 26 7 0 10 143 10 408 0
396 -1 408 -20 422 -16 12 -20 26 -20 72 0 51 2 58 20 58 16 0 20 7 20 30 0
17 -4 30 -10 30 -5 0 -10 9 -10 20 0 11 -4 20 -10 20 -5 0 -10 7 -10 15 0 20
-85 105 -105 105 -8 0 -15 5 -15 10 0 6 -13 10 -30 10 -16 0 -30 5 -30 10 0 6
-47 10 -120 10 -73 0 -120 -4 -120 -10z m20 -160 c0 -6 40 -10 100 -10 55 0
100 -3 100 -6 0 -3 -13 -19 -30 -34 -16 -15 -30 -35 -30 -44 0 -9 -4 -16 -10
-16 -5 0 -10 -9 -10 -20 0 -11 -4 -20 -10 -20 -5 0 -10 -18 -10 -40 0 -22 -4
-40 -10 -40 -5 0 -10 18 -10 40 0 22 -4 40 -10 40 -5 0 -10 9 -10 20 0 11 -4
20 -10 20 -5 0 -10 7 -10 16 0 8 -18 33 -40 54 -45 44 -48 50 -20 50 11 0 20
-4 20 -10z m-160 -60 c0 -5 9 -10 20 -10 11 0 20 -4 20 -10 0 -5 9 -10 20 -10
11 0 20 -4 20 -10 0 -5 9 -10 20 -10 11 0 20 -4 20 -10 0 -5 9 -10 20 -10 11
0 20 -4 20 -10 0 -5 9 -10 20 -10 11 0 20 -4 20 -10 0 -5 -9 -10 -20 -10 -11
0 -20 5 -20 10 0 6 -9 10 -20 10 -11 0 -20 5 -20 10 0 6 -9 10 -20 10 -11 0
-20 5 -20 10 0 6 -9 10 -20 10 -11 0 -20 5 -20 10 0 6 -7 10 -16 10 -15 0 -44
23 -44 34 0 3 5 6 10 6 6 0 10 -4 10 -10z m40 -120 c0 -5 9 -10 20 -10 11 0
20 -4 20 -10 0 -5 9 -10 20 -10 11 0 20 -4 20 -10 0 -5 7 -10 16 -10 8 0 22
-6 30 -14 16 -17 19 -66 4 -66 -5 0 -10 5 -10 10 0 6 -9 10 -20 10 -11 0 -20
5 -20 10 0 6 -9 10 -20 10 -11 0 -20 5 -20 10 0 6 -9 10 -20 10 -11 0 -20 5
-20 10 0 6 -9 10 -20 10 -16 0 -20 7 -20 30 0 23 4 30 20 30 11 0 20 -4 20
-10z m460 -6 c0 -8 -6 -22 -14 -30 -8 -8 -22 -14 -30 -14 -9 0 -16 -4 -16 -10
0 -5 -9 -10 -20 -10 -11 0 -20 -4 -20 -10 0 -5 -9 -10 -20 -10 -11 0 -20 -4
-20 -10 0 -5 -4 -10 -10 -10 -15 0 -12 29 4 46 8 8 22 14 30 14 9 0 16 5 16
10 0 6 9 10 20 10 11 0 20 5 20 10 0 6 9 10 20 10 11 0 20 5 20 10 0 6 5 10
10 10 6 0 10 -7 10 -16z m-240 -114 c0 -27 -4 -50 -10 -50 -5 0 -10 23 -10 50
0 28 5 50 10 50 6 0 10 -22 10 -50z m320 44 c0 -11 -29 -34 -44 -34 -9 0 -16
-4 -16 -10 0 -5 -9 -10 -20 -10 -11 0 -20 -4 -20 -10 0 -5 -9 -10 -20 -10 -11
0 -20 -4 -20 -10 0 -5 -9 -10 -20 -10 -11 0 -20 -4 -20 -10 0 -5 -9 -10 -20
-10 -11 0 -20 -4 -20 -10 0 -5 -9 -10 -20 -10 -11 0 -20 -4 -20 -10 0 -5 -7
-10 -16 -10 -43 0 -44 -11 -44 -384 0 -231 -4 -356 -10 -356 -6 0 -10 137 -10
390 0 253 4 390 10 390 6 0 10 -4 10 -10 0 -5 14 -10 30 -10 17 0 30 5 30 10
0 6 9 10 20 10 11 0 20 5 20 10 0 6 9 10 20 10 11 0 20 5 20 10 0 6 9 10 20
10 11 0 20 5 20 10 0 6 9 10 20 10 11 0 20 5 20 10 0 6 9 10 20 10 11 0 20 5
20 10 0 6 9 10 20 10 11 0 20 5 20 10 0 6 5 10 10 10 6 0 10 -3 10 -6z m-600
-84 c0 -5 9 -10 20 -10 17 0 20 -7 20 -50 0 -53 -16 -66 -46 -36 -16 17 -20
106 -4 106 6 0 10 -4 10 -10z m80 -40 c0 -5 9 -10 20 -10 17 0 20 -7 20 -50 0
-53 -16 -66 -46 -36 -16 17 -20 106 -4 106 6 0 10 -4 10 -10z m80 -40 c0 -5 9
-10 20 -10 17 0 20 -7 20 -50 0 -53 -16 -66 -46 -36 -16 17 -20 106 -4 106 6
0 10 -4 10 -10z m-160 -40 c0 -5 9 -10 20 -10 17 0 20 -7 20 -50 0 -53 -16
-66 -46 -36 -16 17 -20 106 -4 106 6 0 10 -4 10 -10z m80 -40 c0 -5 9 -10 20
-10 17 0 20 -7 20 -50 0 -53 -16 -66 -46 -36 -16 17 -20 106 -4 106 6 0 10 -4
10 -10z m80 -40 c0 -5 9 -10 20 -10 17 0 20 -7 20 -50 0 -43 -3 -50 -20 -50
-13 0 -20 -7 -20 -20 0 -11 -4 -20 -10 -20 -14 0 -12 37 3 44 10 5 10 7 0 12
-15 7 -18 104 -3 104 6 0 10 -4 10 -10z m-160 -40 c0 -5 9 -10 20 -10 17 0 20
-7 20 -50 0 -53 -16 -66 -46 -36 -16 17 -20 106 -4 106 6 0 10 -4 10 -10z m80
-40 c0 -5 9 -10 20 -10 17 0 20 -7 20 -40 0 -38 -2 -40 -30 -40 -29 0 -30 1
-30 50 0 28 5 50 10 50 6 0 10 -4 10 -10z m-80 -80 c0 -5 9 -10 20 -10 13 0
20 -7 20 -20 0 -13 -7 -20 -20 -20 -11 0 -20 -4 -20 -10 0 -5 -4 -10 -10 -10
-5 0 -10 18 -10 40 0 22 5 40 10 40 6 0 10 -4 10 -10z m-20 -120 c0 -5 -4 -10
-10 -10 -5 0 -10 5 -10 10 0 6 5 10 10 10 6 0 10 -4 10 -10z m0 -180 c0 -5 -4
-10 -10 -10 -5 0 -10 5 -10 10 0 6 5 10 10 10 6 0 10 -4 10 -10z m300 -180 c0
-5 -4 -10 -10 -10 -5 0 -10 5 -10 10 0 6 5 10 10 10 6 0 10 -4 10 -10z m20
-40 c0 -5 -9 -10 -20 -10 -11 0 -20 5 -20 10 0 6 9 10 20 10 11 0 20 -4 20
-10z"/>
</g>
</svg>
